<svg id="图层_1" data-name="图层 1" xmlns="http://www.w3.org/2000/svg" viewBox="0 0 328.19 54.14"><title>黑豹</title><path d="M42.29,14.61c-11.55,0-19.2,8.71-19.2,19.72S30.2,54,42.13,54c7.88,0,13.46-3.6,16.75-9.26L54.6,42C52,46.42,48.33,49.4,42.13,49.4c-8.25,0-14-6.43-14.07-14.23H60V33.8C60,21.64,52.07,14.61,42.29,14.61ZM28.22,30.82A14,14,0,0,1,42.13,19.19c6.66,0,12,4.44,12.93,11.63Z" transform="translate(0 0)"/><polygon points="0 15.29 0 53.53 4.97 53.53 4.97 19.88 22.94 19.88 22.94 15.29 0 15.29"/><path d="M220.34,33.8c-.07-12.16-8-19.19-17.74-19.19-11.54,0-19.19,8.71-19.19,19.72S190.52,54,202.45,54c7.88,0,13.46-3.6,16.75-9.26L214.91,42c-2.6,4.44-6.27,7.42-12.46,7.42-8.26,0-14-6.43-14.07-14.23h32Zm-31.81-3a14,14,0,0,1,13.92-11.63c6.65,0,12,4.44,12.92,11.63Z" transform="translate(0 0)"/><path d="M164.28,14.76a14.55,14.55,0,0,0-12.77,6.88c-2.06-4-5.81-6.88-11.7-6.88a13.09,13.09,0,0,0-11.24,5.58V15.29h-5V53.45h5V28.83c0-5.74,5.2-9.48,10.1-9.48,6.27,0,9.63,4.66,9.63,10.85V53.45h5v-24c0-7.42,5.43-10.09,10.25-10.09,6.11,0,9.71,4.66,9.71,10.85V53.45h5V30.2C178.2,20.8,173.08,14.76,164.28,14.76Z" transform="translate(0 0)"/><path d="M97,19.81a18.47,18.47,0,0,0-12.85-5c-11.31,0-19.34,8.56-19.34,19.73s8,19.65,19.34,19.65a18.17,18.17,0,0,0,12.85-5v4.44h4.89V15.37H97ZM83.84,49.17c-8.26,0-14.07-6.58-14.07-14.68s5.81-14.76,14.07-14.76,13.92,5.81,13.92,14.76S92.1,49.17,83.84,49.17Z" transform="translate(0 0)"/><rect x="110.26" width="4.97" height="53.45"/><polygon points="245.56 14.66 252.03 14.7 269.79 32.46 263.36 32.46 245.56 14.66"/><polygon points="269.79 32.46 263.36 32.46 281.15 14.66 287.59 14.66 269.79 32.46"/><polygon points="287.59 54.14 281.12 54.1 263.36 36.34 269.79 36.34 287.59 54.14"/><polygon points="263.36 36.34 269.79 36.34 252 54.14 245.56 54.14 263.36 36.34"/><rect x="290.02" y="14.63" width="38.17" height="4.64"/><rect x="293.62" y="36.32" width="30.99" height="4.64" transform="translate(347.75 -270.46) rotate(90)"/></svg>